<svg viewBox="0 0 820 320" xmlns="http://www.w3.org/2000/svg" font-family="'Georgia', serif">
  <rect width="820" height="320" fill="#FAFAF8" rx="14"/>
  <text x="410" y="30" text-anchor="middle" font-size="15" font-weight="bold" fill="#2C2C2A" letter-spacing="0.5">CHIP DESIGN ROADMAP — $10M SEED · 8 ENGINEERS · 18 MONTHS TO SILICON</text>

  <!-- Timeline spine -->
  <line x1="40" y1="160" x2="780" y2="160" stroke="#B4B2A9" stroke-width="2"/>

  <!-- Phase 0: FPGA Validation -->
  <rect x="30" y="60" width="150" height="90" rx="8" fill="#EEEDFE" stroke="#7F77DD" stroke-width="1.5"/>
  <text x="105" y="80" text-anchor="middle" font-size="10" font-weight="bold" fill="#3C3489">Phase 0</text>
  <text x="105" y="94" text-anchor="middle" font-size="9" fill="#534AB7">FPGA Validation</text>
  <line x1="40" y1="100" x2="170" y2="100" stroke="#AFA9EC" stroke-width="0.6"/>
  <text x="105" y="114" text-anchor="middle" font-size="8" fill="#534AB7">Xilinx Alveo U280</text>
  <text x="105" y="126" text-anchor="middle" font-size="8" fill="#534AB7">CMFC correctness</text>
  <text x="105" y="138" text-anchor="middle" font-size="8" fill="#534AB7">W4A8 benchmarks</text>
  <line x1="105" y1="150" x2="105" y2="160" stroke="#7F77DD" stroke-width="1.5"/>
  <circle cx="105" cy="160" r="6" fill="#7F77DD"/>
  <text x="105" y="178" text-anchor="middle" font-size="9" fill="#534AB7" font-weight="bold">Month 0–6</text>
  <text x="105" y="192" text-anchor="middle" font-size="8" fill="#534AB7">~$200K</text>

  <!-- Phase 0 success criteria below timeline -->
  <rect x="30" y="205" width="150" height="88" rx="6" fill="#EEEDFE" stroke="#AFA9EC"/>
  <text x="105" y="220" text-anchor="middle" font-size="8.5" fill="#3C3489" font-weight="bold">Success criteria:</text>
  <text x="40" y="234" font-size="7.5" fill="#534AB7">✓ 16 Pods on FPGA</text>
  <text x="40" y="246" font-size="7.5" fill="#534AB7">✓ Context switch &lt;10ms</text>
  <text x="40" y="258" font-size="7.5" fill="#534AB7">✓ W4A8 kernel &gt;80%</text>
  <text x="40" y="270" font-size="7.5" fill="#534AB7">✓ HBM2 util &gt;70%</text>
  <text x="40" y="282" font-size="7.5" fill="#534AB7">✓ 13B TTFT &lt;250ms</text>
  <text x="105" y="296" text-anchor="middle" font-size="7.5" fill="#791F1F" font-weight="bold">KILL: TTFT &gt;500ms → review</text>

  <!-- Test Chip MPW -->
  <rect x="210" y="60" width="150" height="90" rx="8" fill="#FAEEDA" stroke="#EF9F27" stroke-width="1.5"/>
  <text x="285" y="80" text-anchor="middle" font-size="10" font-weight="bold" fill="#633806">Test Chip</text>
  <text x="285" y="94" text-anchor="middle" font-size="9" fill="#854F0B">MPW Shuttle</text>
  <line x1="220" y1="100" x2="350" y2="100" stroke="#FAC775" stroke-width="0.6"/>
  <text x="285" y="114" text-anchor="middle" font-size="8" fill="#854F0B">~100mm² Samsung SF12</text>
  <text x="285" y="126" text-anchor="middle" font-size="8" fill="#854F0B">32-Pod CMFC only</text>
  <text x="285" y="138" text-anchor="middle" font-size="8" fill="#854F0B">Real silicon CMFC proof</text>
  <line x1="285" y1="150" x2="285" y2="160" stroke="#EF9F27" stroke-width="1.5"/>
  <circle cx="285" cy="160" r="6" fill="#EF9F27"/>
  <text x="285" y="178" text-anchor="middle" font-size="9" fill="#854F0B" font-weight="bold">Month 6–13</text>
  <text x="285" y="192" text-anchor="middle" font-size="8" fill="#854F0B">~$12–15M NRE</text>

  <rect x="210" y="205" width="150" height="88" rx="6" fill="#FAEEDA" stroke="#FAC775"/>
  <text x="285" y="220" text-anchor="middle" font-size="8.5" fill="#633806" font-weight="bold">Test chip proves:</text>
  <text x="220" y="234" font-size="7.5" fill="#854F0B">✓ CMFC &lt;2ms on silicon</text>
  <text x="220" y="246" font-size="7.5" fill="#854F0B">✓ KV directory coherency</text>
  <text x="220" y="258" font-size="7.5" fill="#854F0B">✓ Priority preemption</text>
  <text x="220" y="270" font-size="7.5" fill="#854F0B">✓ W4A8 systolic exec</text>
  <text x="285" y="284" text-anchor="middle" font-size="7.5" fill="#633806" font-weight="bold">Gate for $60–80M tape-out</text>

  <!-- CortexChip v1.0 -->
  <rect x="390" y="44" width="180" height="106" rx="8" fill="#E1F5EE" stroke="#1D9E75" stroke-width="2.5"/>
  <text x="480" y="64" text-anchor="middle" font-size="11" font-weight="bold" fill="#085041">CortexChip v1.0</text>
  <text x="480" y="78" text-anchor="middle" font-size="9" fill="#0F6E56">First full tape-out</text>
  <line x1="400" y1="86" x2="560" y2="86" stroke="#5DCAA5" stroke-width="0.6"/>
  <text x="480" y="100" text-anchor="middle" font-size="8" fill="#0F6E56">~450mm² Samsung SF12</text>
  <text x="480" y="112" text-anchor="middle" font-size="8" fill="#0F6E56">256 Pods · 300W TDP</text>
  <text x="480" y="124" text-anchor="middle" font-size="8" fill="#0F6E56">Full CMFC + TCA + GDDR7</text>
  <text x="480" y="136" text-anchor="middle" font-size="8" fill="#0F6E56">FOPLP via ASE Group</text>
  <line x1="480" y1="150" x2="480" y2="160" stroke="#1D9E75" stroke-width="2"/>
  <circle cx="480" cy="160" r="8" fill="#1D9E75"/>
  <text x="480" y="178" text-anchor="middle" font-size="9" fill="#085041" font-weight="bold">Month 13–18</text>
  <text x="480" y="192" text-anchor="middle" font-size="8" fill="#085041">~$60–80M NRE</text>

  <rect x="390" y="205" width="180" height="88" rx="6" fill="#E1F5EE" stroke="#5DCAA5"/>
  <text x="480" y="220" text-anchor="middle" font-size="8.5" fill="#085041" font-weight="bold">v1.0 targets:</text>
  <text x="400" y="234" font-size="7.5" fill="#0F6E56">✓ 256 concurrent Pods</text>
  <text x="400" y="246" font-size="7.5" fill="#0F6E56">✓ P99 handoff &lt;2ms</text>
  <text x="400" y="258" font-size="7.5" fill="#0F6E56">✓ W4A8 TTFT &lt;50ms (70B)</text>
  <text x="400" y="270" font-size="7.5" fill="#0F6E56">✓ &gt;75% first-run yield</text>
  <text x="480" y="284" text-anchor="middle" font-size="7.5" fill="#085041" font-weight="bold">500 chips beta program</text>
  <text x="480" y="296" text-anchor="middle" font-size="7.5" fill="#085041">Series A trigger at bringup</text>

  <!-- CortexChip v2.0 -->
  <rect x="600" y="60" width="190" height="90" rx="8" fill="#E6F1FB" stroke="#378ADD" stroke-width="1.5"/>
  <text x="695" y="80" text-anchor="middle" font-size="11" font-weight="bold" fill="#0C447C">CortexChip v2.0</text>
  <text x="695" y="94" text-anchor="middle" font-size="9" fill="#185FA5">Telemetry-informed</text>
  <line x1="610" y1="102" x2="780" y2="102" stroke="#B5D4F4" stroke-width="0.6"/>
  <text x="695" y="116" text-anchor="middle" font-size="8" fill="#185FA5">512 Pods (2× v1.0)</text>
  <text x="695" y="128" text-anchor="middle" font-size="8" fill="#185FA5">MoE-optimized TCA dispatch</text>
  <text x="695" y="140" text-anchor="middle" font-size="8" fill="#185FA5">Target 240W TDP (–20%)</text>
  <line x1="695" y1="150" x2="695" y2="160" stroke="#378ADD" stroke-width="1.5"/>
  <circle cx="695" cy="160" r="6" fill="#378ADD"/>
  <text x="695" y="178" text-anchor="middle" font-size="9" fill="#185FA5" font-weight="bold">Month 24–36</text>
  <text x="695" y="192" text-anchor="middle" font-size="8" fill="#185FA5">Volume production</text>

  <rect x="600" y="205" width="190" height="88" rx="6" fill="#E6F1FB" stroke="#B5D4F4"/>
  <text x="695" y="220" text-anchor="middle" font-size="8.5" fill="#0C447C" font-weight="bold">v2.0 improvements:</text>
  <text x="610" y="234" font-size="7.5" fill="#185FA5">✓ 3MB per Pod SRAM (+50%)</text>
  <text x="610" y="246" font-size="7.5" fill="#185FA5">✓ CXL 3.0 evaluation</text>
  <text x="610" y="258" font-size="7.5" fill="#185FA5">✓ Samsung SF8 assessment</text>
  <text x="610" y="270" font-size="7.5" fill="#185FA5">✓ Chip licensing revenue</text>
  <text x="695" y="284" text-anchor="middle" font-size="7.5" fill="#0C447C" font-weight="bold">ARR target: $25M+</text>
  <text x="695" y="296" text-anchor="middle" font-size="7.5" fill="#0C447C">Gross margin: 65–75%</text>
</svg>
